<?xml version="1.0" encoding="UTF-8" standalone="no"?>
<!-- Created with Inkscape (http://www.inkscape.org/) -->

<svg
   xmlns:dc="http://purl.org/dc/elements/1.1/"
   xmlns:cc="http://creativecommons.org/ns#"
   xmlns:rdf="http://www.w3.org/1999/02/22-rdf-syntax-ns#"
   xmlns:svg="http://www.w3.org/2000/svg"
   xmlns="http://www.w3.org/2000/svg"
   xmlns:sodipodi="http://sodipodi.sourceforge.net/DTD/sodipodi-0.dtd"
   xmlns:inkscape="http://www.inkscape.org/namespaces/inkscape"
   width="100"
   height="100"
   viewBox="0 0 99.999997 99.999997"
   id="svg4208"
   version="1.1"
   inkscape:version="0.91 r13725"
   sodipodi:docname="empty.svg">
  <defs
     id="defs4210" />
  <sodipodi:namedview
     id="base"
     pagecolor="#ffffff"
     bordercolor="#666666"
     borderopacity="1.0"
     inkscape:pageopacity="0.0"
     inkscape:pageshadow="2"
     inkscape:zoom="1.0170184"
     inkscape:cx="94.804454"
     inkscape:cy="133.12973"
     inkscape:document-units="px"
     inkscape:current-layer="layer1"
     showgrid="false"
     units="px"
     inkscape:window-width="1366"
     inkscape:window-height="665"
     inkscape:window-x="0"
     inkscape:window-y="30"
     inkscape:window-maximized="1" />
  <metadata
     id="metadata4213">
    <rdf:RDF>
      <cc:Work
         rdf:about="">
        <dc:format>image/svg+xml</dc:format>
        <dc:type
           rdf:resource="http://purl.org/dc/dcmitype/StillImage" />
        <dc:title></dc:title>
      </cc:Work>
    </rdf:RDF>
  </metadata>
  <g
     inkscape:label="Layer 1"
     inkscape:groupmode="layer"
     id="layer1"
     transform="translate(0,-952.36223)">
    <g
       transform="matrix(0.23648648,0,0,0.23648648,-3.2128654,949.40931)"
       id="g3014">
      <path
         style="fill:#fefefe"
         d="m 17.184824,227.40271 c 0,-70.47619 0,-140.952382 0,-211.428573 140.952386,0 281.904766,0 422.857146,0 0,140.952383 0,281.904773 0,422.857153 -140.95238,0 -281.90476,0 -422.857146,0 0,-70.47619 0,-140.95239 0,-211.42858 z"
         id="path3078"
         inkscape:connector-curvature="0" />
      <path
         style="fill:#f9f9f9"
         d="M 221.00197,436.36148 C 137.34898,434.36932 58.741064,376.78301 31.658795,297.60648 2.2510522,218.3846 27.560709,123.04746 92.346356,68.848251 156.58957,12.22702 256.48047,2.3328165 330.67066,45.017091 405.09995,85.17434 448.67581,173.76863 435.5525,257.2531 c -11.13896,85.52825 -80.65335,159.22493 -165.49699,175.08448 -16.1273,3.34355 -32.60962,4.41627 -49.05354,4.0239 z m 18.52114,-226.20963 c 46.10087,-2.85966 96.96456,-22.84021 117.73886,-66.91907 16.13552,-33.60072 -1.42262,-73.622154 -30.48775,-93.724708 -52.37698,-37.5251 -126.78567,-39.5751939 -182.82978,-8.868024 -32.8042,17.221231 -59.133357,55.660995 -47.290557,93.563492 13.979457,44.03019 60.628087,67.55625 103.606417,74.07574 12.98409,2.07664 26.14528,2.50307 39.26281,1.87257 z"
         id="path3076"
         inkscape:connector-curvature="0" />
      <path
         style="fill:#f5f5f5"
         d="M 221.17111,436.3616 C 137.43845,434.32317 58.671845,376.79373 31.659183,297.43862 2.5120747,219.0407 27.156055,124.86178 90.599934,70.51671 155.84394,11.55752 259.21968,1.9101095 334.47063,47.282975 407.15942,88.680664 449.02831,176.65489 435.23759,259.18428 423.76483,340.10691 360.3463,410.20811 281.01722,429.77792 c -19.50115,5.12259 -39.71048,7.14004 -59.84611,6.58368 z M 239.2694,214.20478 C 287.13919,211.42166 340.52148,190.31545 361.00886,143.80571 376.11509,109.73227 358.15041,70.195681 329.1184,49.957465 274.12266,10.596115 195.19953,9.1355255 137.46725,43.549005 105.79813,61.883094 81.70632,100.32431 93.942737,137.40256 c 15.201573,45.58188 63.999973,69.24148 108.747893,75.32281 12.1145,1.6738 24.36949,2.09075 36.57877,1.47941 z"
         id="path3074"
         inkscape:connector-curvature="0" />
      <path
         style="fill:#f1f1f1"
         d="M 221.17111,436.3616 C 137.43845,434.32317 58.671845,376.79373 31.659183,297.43862 1.5878511,216.5306 28.919706,118.88467 96.694019,65.392597 124.92042,42.619345 159.13953,26.842025 195.12311,21.693735 150.91823,29.441854 102.97441,54.625884 90.088104,100.856 c -10.77815,39.68688 17.241656,78.21008 51.183166,95.98609 58.11862,31.39316 134.75341,29.17553 189.08156,-9.30637 29.83694,-20.40501 48.7496,-60.53878 33.91907,-95.558591 C 347.52693,51.057995 303.53378,29.086511 262.10369,21.693735 349.53912,33.767709 422.93661,108.24924 435.21221,195.46501 449.46896,280.11883 405.00106,370.51188 329.10574,410.67972 296.29083,428.78858 258.61197,437.63336 221.17111,436.3616 Z M 195.63054,21.555851 c 0.2727,-0.713234 1.0179,0.579268 0,0 z m 65.45829,0 c 0.0773,-0.553982 1.17662,0.449928 0,0 z M 196.6454,21.370613 c 0.71612,-0.625323 3.70079,0.102203 0,0 z m 62.96657,0.02626 c -2.87559,-0.874602 3.19032,0.33377 0,0 z m -60.76771,-0.348446 c 0.27271,-0.713247 1.01787,0.579271 0,0 z m 59.03085,0 c 0.0773,-0.553984 1.17662,0.449929 0,0 z m -57.72,-0.281163 c 0.93145,-0.274522 0.16905,0.296026 0,0 z m 56.49372,0 c 0.93145,-0.274522 0.16905,0.296026 0,0 z"
         id="path3072"
         inkscape:connector-curvature="0" />
      <path
         style="fill:#ededed"
         d="M 221.34026,436.36172 C 139.32563,434.38146 61.957838,379.21165 33.485668,302.27406 1.8703947,223.26114 25.587813,126.46483 90.167456,71.035348 114.97374,49.127509 145.10062,33.01504 177.33691,25.36355 136.28536,36.424541 93.253204,64.704818 85.804671,109.59378 c -6.810565,43.28787 27.702919,80.3999 65.000959,96.44233 59.49272,26.32502 134.87575,21.68955 186.78965,-19.26323 29.18191,-22.08364 44.69268,-64.02404 27.43735,-98.093041 C 349.13471,55.128783 314.4794,35.01513 279.8899,25.36355 c 84.40149,19.411848 150.24505,97.21834 156.92886,183.34888 8.68779,84.20749 -39.97724,170.21097 -116.3939,206.45275 -30.66149,15.01766 -64.96525,22.3042 -99.0846,21.19654 z"
         id="path3070"
         inkscape:connector-curvature="0" />
      <path
         style="fill:#e9e9e9"
         d="M 221.5094,436.36185 C 138.57327,434.36333 60.478829,378.06642 32.593162,299.89329 2.7693263,222.44949 25.570924,128.71955 87.462038,73.489868 109.26993,53.572574 135.35863,38.145675 163.59669,29.383334 123.94757,42.892965 83.83517,75.241687 82.236583,120.22902 c -1.16567,45.35545 38.180697,79.6522 77.841077,93.85715 60.84937,22.16068 135.86116,14.92765 185.35635,-29.16377 27.87163,-23.99395 39.20424,-67.1347 19.82177,-99.788122 C 350.18023,57.706407 322.45261,39.765898 293.6301,29.383334 378.89546,55.176606 440.14312,141.4757 437.57404,230.3432 c -0.0187,85.10599 -57.95439,166.04083 -138.37509,193.76459 -24.85005,8.91741 -51.30588,13.04185 -77.68955,12.25406 z"
         id="path3068"
         inkscape:connector-curvature="0" />
      <path
         style="fill:#e5e5e5"
         d="M 220.83283,436.19222 C 137.0694,434.15607 58.383595,376.31178 31.573233,296.90395 3.1571818,219.30943 26.853201,126.31447 89.159775,71.955643 107.79629,55.380658 129.36978,41.994933 152.75446,33.256529 114.4076,48.878494 77.296168,83.675843 79.60934,128.17417 c 2.827288,46.19889 44.38986,78.4582 85.41679,91.70166 61.9133,20.15616 137.26211,11.28907 185.57851,-34.81106 26.51884,-24.75161 36.18546,-67.29071 16.84906,-99.254112 -13.63435,-24.591292 -37.61347,-41.599424 -62.98135,-52.554129 80.80625,29.5866 136.70704,114.109441 132.91318,200.009621 -1.0298,86.99747 -62.87964,168.72139 -146.27659,193.51185 -22.65488,7.25085 -46.5378,10.10935 -70.27611,9.41422 z"
         id="path3066"
         inkscape:connector-curvature="0" />
      <path
         style="fill:#e1e1e1"
         d="M 221.00197,436.19234 C 137.68009,434.22788 59.368848,377.05279 32.083753,298.33013 2.8999076,220.27191 26.538303,126.03166 89.764123,71.550706 105.49522,57.5033 123.43542,45.896584 142.78219,37.492268 105.89209,54.74641 72.233833,91.548338 77.37163,134.88653 c 6.162763,47.60515 50.43099,78.41557 93.505,90.75203 61.37767,17.43857 134.46329,7.67205 181.81521,-37.54549 27.71841,-25.67442 37.04371,-70.33202 16.08458,-103.023464 -12.42369,-21.22063 -32.6133,-36.716585 -54.33181,-47.577338 79.96985,34.012088 131.32126,122.662002 122.205,208.939012 -6.6311,85.73546 -71.84148,162.78178 -155.46226,183.17734 -19.61114,5.15923 -39.937,7.14769 -60.18538,6.58372 z"
         id="path3064"
         inkscape:connector-curvature="0" />
      <path
         style="fill:#dddddd"
         d="M 221.00197,436.19234 C 138.95342,434.16707 61.599737,378.81686 33.342904,301.72724 2.5546353,223.78293 25.154098,128.71398 87.949655,73.177483 98.95033,62.027632 125.28929,45.15278 131.18711,43.463199 95.871312,62.572279 66.812722,102.26872 75.976773,144.02965 c 11.174062,49.2921 60.444967,78.41778 106.732197,88.46312 60.80069,13.12826 131.38648,0.93841 175.68696,-45.23749 26.63336,-26.91721 32.74762,-71.84849 11.13875,-103.544316 -6.23499,-15.758093 -46.16227,-43.36474 -42.14177,-39.956508 75.07626,38.631424 120.14071,126.388384 108.47364,209.922224 -9.44603,83.97102 -75.19861,157.53908 -157.4405,176.6201 -18.75623,4.71574 -38.12222,6.4059 -57.42408,5.89556 z"
         id="path3062"
         inkscape:connector-curvature="0" />
      <path
         style="fill:#d9d9d9"
         d="M 221.17111,436.19246 C 137.47198,434.25933 58.889889,376.61941 31.828325,297.43862 2.5049984,218.42555 27.67192,123.28518 92.404337,69.261612 101.43484,61.29427 117.54298,50.043856 125.54214,46.451896 90.719027,66.855523 63.227935,107.84794 74.282504,149.27053 c 13.121426,49.20518 62.890806,77.48238 109.871556,87.29011 60.5866,12.34633 130.34919,0.26755 174.93557,-44.97481 27.28326,-26.91956 35.40769,-72.23932 13.65047,-105.050943 -8.42135,-16.271799 -29.94109,-33.087117 -40.4339,-39.945892 76.26699,41.548824 118.78335,134.532395 101.59556,219.471055 -14.29877,81.01992 -80.89128,149.3854 -161.58642,165.60146 -16.792,3.67461 -33.98197,4.94891 -51.14423,4.53095 z M 126.95854,45.501469 c 0.9255,-0.812782 0.88578,-0.150273 0,0 z m 202.8769,-0.190377 c -0.86562,-0.679854 1.39185,0.725548 0,0 z"
         id="path3060"
         inkscape:connector-curvature="0" />
      <path
         style="fill:#d5d5d5"
         d="M 221.17111,436.19246 C 136.82948,434.23283 57.769519,375.62363 31.183414,295.61573 3.2133091,217.76691 27.633185,124.78576 90.508254,70.92088 96.889218,65.120786 116.1789,50.768125 117.11695,51.674625 83.310652,73.545602 59.606251,116.68498 73.436648,156.87325 c 17.280473,50.18585 70.174632,76.92664 119.610472,85.0221 60.5826,9.57787 129.42248,-4.58358 171.71112,-51.54623 26.32162,-28.34487 30.85805,-74.19184 8.01388,-105.978574 -7.49347,-13.122508 -25.57914,-27.680665 -33.53929,-33.679056 72.5477,43.529035 111.79266,134.3904 94.32579,217.10324 -15.59976,85.06177 -89.22165,155.15263 -175.02235,166.32965 -12.36222,1.92729 -24.8758,2.26216 -37.36516,2.06808 z"
         id="path3058"
         inkscape:connector-curvature="0" />
      <path
         style="fill:#d1d1d1"
         d="M 221.17111,436.19246 C 137.51813,434.20002 58.910207,376.61394 31.827938,297.43734 2.0591109,217.48107 28.496495,121.05949 94.750691,67.400404 103.23032,60.085875 121.69322,47.739312 103.49629,61.783595 73.562747,86.114245 57.429072,129.50594 73.716447,166.02593 c 22.327277,50.9961 79.569963,75.66489 132.021853,81.16915 58.42427,5.60828 123.85937,-10.10263 162.96806,-56.45856 25.4652,-29.24445 28.68548,-75.23893 5.10102,-106.651423 -4.47374,-9.28322 -27.66314,-28.862108 -27.36408,-28.676506 72.36731,47.554449 107.57218,143.250259 83.82689,226.459849 -21.23089,82.89093 -98.07357,147.26379 -183.40183,153.62534 -8.53552,0.83557 -17.13129,0.72399 -25.69725,0.69868 z"
         id="path3056"
         inkscape:connector-curvature="0" />
      <path
         style="fill:#cdcdcd"
         d="M 221.17111,436.19246 C 136.82948,434.23283 57.769519,375.62363 31.183414,295.61573 2.8272332,216.90008 28.345221,122.67745 92.695408,69.172782 97.204637,64.91139 116.19487,51.157163 100.9365,63.460788 70.817788,88.256282 55.00494,132.35262 71.857213,169.15041 c 22.942596,51.01833 80.082827,75.84632 132.963147,81.5002 60.47443,5.94479 128.54551,-10.56678 167.85772,-59.76285 25.11311,-30.29205 25.78911,-76.68042 1.65041,-107.672342 -5.34836,-8.761563 -19.81394,-21.199482 -23.51793,-24.651956 70.65707,48.971908 103.50078,144.598788 78.48667,226.781448 -22.60631,82.31713 -100.22242,145.2299 -185.41021,150.40209 -7.55251,0.5438 -15.1476,0.47917 -22.71591,0.44546 z"
         id="path3054"
         inkscape:connector-curvature="0" />
      <path
         style="fill:#c9c9c9"
         d="M 221.34026,436.19257 C 138.80863,434.17173 60.968201,378.29076 33.009299,300.55858 3.1112692,223.63025 25.019722,130.20531 86.346698,74.863349 c 7.794761,-7.486102 23.443962,-19.33136 6.68406,-4.49788 -29.979291,27.729933 -40.34981,75.832611 -18.181059,111.445521 29.334031,49.22135 89.172351,70.81599 143.989431,73.38519 58.98788,2.14267 124.4656,-16.8957 159.70422,-67.18199 23.54559,-32.55094 19.80572,-79.7513 -6.84216,-109.379512 -4.62683,-6.604971 -25.96817,-24.65201 -7.95971,-10.086343 65.03427,53.461265 90.86148,148.340755 62.12388,227.438335 -26.82356,80.50262 -106.94965,139.24242 -191.87387,140.15829 -4.21664,0.0547 -8.43436,0.13317 -12.65123,0.0476 z"
         id="path3052"
         inkscape:connector-curvature="0" />
      <path
         style="fill:#c5c5c5"
         d="M 221.34026,436.19257 C 137.60761,434.15388 58.840984,376.62466 31.828325,297.26948 1.7730582,216.52294 29.107724,118.57708 97.266616,65.723377 66.904279,91.087764 50.697692,135.54296 67.387929,173.04663 c 22.389785,51.42989 79.109101,77.25193 132.046771,83.96949 61.00932,7.34 129.08411,-7.76471 171.80517,-54.3769 C 399.00654,173.392 405.25798,125.75024 382.20606,91.859377 379.84459,83.786336 348.71752,55.756081 368.4147,72.644467 432.0662,128.28692 455.01577,224.4834 423.30989,302.86148 393.8552,382.09961 312.21187,437.71514 227.72843,436.21864 l -2.81453,0.0129 -3.5736,-0.0389 -4e-5,0 z"
         id="path3050"
         inkscape:connector-curvature="0" />
      <path
         style="fill:#c1c1c1"
         d="M 221.5094,436.19271 C 138.66075,434.19765 60.593372,378.02001 32.762304,299.89329 2.3271348,220.89766 26.628622,124.5502 91.802636,70.268995 62.45627,96.910989 48.79672,141.96685 66.822467,178.69834 c 24.542593,50.98108 81.834613,76.02637 135.433353,82.10038 61.95715,6.53869 131.34673,-9.59533 173.28659,-58.45152 27.12714,-30.48661 30.89674,-78.78267 6.61237,-112.088219 -4.82999,-8.267789 -25.89677,-28.98949 -7.69213,-11.923799 61.64269,58.317018 80.59831,155.785478 45.3529,232.978058 C 386.99585,388.49925 305.2477,439.71715 221.5094,436.19271 Z M 92.62254,69.507852 c 1.5998,-1.528849 -1.203472,1.502679 0,0 z m 271.79977,-0.04229 c -1.5366,-1.598755 1.76732,1.532614 0,0 z"
         id="path3048"
         inkscape:connector-curvature="0" />
      <path
         style="fill:#bdbdbd"
         d="M 220.83283,436.02308 C 136.12433,434.06006 56.837282,374.81994 30.770338,294.22852 4.1952074,217.91386 27.116523,127.12012 87.971111,73.619192 60.284688,100.26871 47.394787,143.59791 64.227427,179.52005 c 25.149365,54.49677 87.131413,80.35613 143.882263,85.27314 61.43638,4.88434 129.50733,-12.1782 170.25822,-61.15162 26.4901,-30.62453 29.61131,-78.323 5.92817,-111.437292 -4.29384,-7.636083 -23.61455,-27.165117 -6.72872,-10.74195 61.43803,60.450042 77.48736,160.475962 38.74897,237.334372 -34.77335,73.43996 -114.29008,121.05765 -195.4835,117.22638 z"
         id="path3046"
         inkscape:connector-curvature="0" />
      <path
         style="fill:#b9b9b9"
         d="M 220.83283,436.02308 C 137.45769,433.99016 59.055656,376.69157 32.032821,297.73433 4.3188926,222.65757 24.894545,132.35932 83.667092,77.711281 55.957026,105.70757 45.509334,150.91095 64.514588,186.51934 c 26.944038,51.69308 86.536482,76.26814 141.987942,81.54638 62.20136,5.19372 131.0979,-11.66057 172.81466,-60.84724 26.52197,-30.14746 31.0373,-77.29575 8.40808,-110.913468 -3.81734,-7.400362 -21.86579,-26.860881 -6.61849,-11.0764 60.54317,62.513158 73.70967,164.287538 31.71741,240.411508 -36.19232,69.63672 -113.61114,114.0201 -191.99136,110.38296 z"
         id="path3044"
         inkscape:connector-curvature="0" />
      <path
         style="fill:#b3b3b3"
         d="M 221.00197,436.02319 C 135.19919,434.0171 54.863829,373.27047 29.800928,291.1159 6.4614791,220.05502 25.031335,136.6384 78.056907,83.550507 50.665656,113.34438 43.65072,160.60658 65.51274,195.51244 c 32.36077,53.27107 97.64,76.0078 157.31359,77.59759 61.18049,1.15882 128.16971,-19.25383 164.88328,-71.16562 23.39433,-32.35337 22.27108,-78.85945 -2.22316,-110.312745 -13.00066,-17.49527 18.02708,18.595815 22.03495,28.439725 46.6799,74.89234 37.42234,178.88787 -21.54954,244.48524 -40.59765,47.15911 -102.80285,74.02457 -164.96989,71.46656 z M 79.175682,82.108995 c 1.272036,-1.23083 -0.87671,1.204946 0,0 z M 377.8659,82.066715 c -1.22578,-1.289075 1.47157,1.219203 0,0 z"
         id="path3042"
         inkscape:connector-curvature="0" />
      <path
         style="fill:#ababab"
         d="M 221.00197,436.02319 C 135.73494,434.09664 56.039645,374.10131 30.357943,292.82983 7.3238479,224.59703 22.854651,144.55255 71.265977,90.972624 45.912986,121.85439 41.84506,168.30033 63.9287,202.04848 c 33.665177,52.88263 99.27275,75.29583 159.42561,76.85942 61.85088,0.95839 129.54349,-19.69741 166.81532,-71.97018 24.52327,-33.41855 23.00125,-81.84409 -2.88233,-114.070212 5.95714,4.912387 23.00675,29.389302 29.15083,43.760912 38.99024,77.37258 21.91385,178.01604 -40.23703,238.362 -40.3324,40.77527 -97.90464,63.30362 -155.19913,61.03277 z M 71.479682,90.586848 c 0.04323,-1.05511 0.804851,0.167246 0,0 z M 385.40277,90.369197 c -0.52092,-1.073804 0.93962,1.104406 0,0 z"
         id="path3040"
         inkscape:connector-curvature="0" />
      <path
         style="fill:#a3a3a3"
         d="M 221.17111,436.02331 C 137.84925,434.0586 59.537994,376.88371 32.252896,298.16099 7.9136762,232.07403 20.093304,153.65976 64.674185,98.927118 c -24.44714,33.130862 -24.63401,80.960332 0.01384,114.011992 39.042265,53.67531 109.286495,74.32045 173.294895,72.28893 59.37895,-2.42367 123.06487,-24.87585 157.19125,-76.25901 22.3872,-32.75568 20.62016,-78.24215 -2.62156,-110.041912 56.13326,68.196852 59.40787,172.808992 9.11823,245.153482 -39.20444,59.12927 -109.66586,94.8536 -180.49973,91.94271 z M 64.883111,98.535817 c 0.2791,-0.789687 0.587025,0.291586 0,0 z m 327.235059,0.03642 c -0.52098,-0.765999 0.7442,0.144657 0,0 z"
         id="path3038"
         inkscape:connector-curvature="0" />
      <path
         style="fill:#9b9b9b"
         d="M 221.17111,436.02331 C 137.84925,434.0586 59.537994,376.88371 32.252896,298.16099 9.1392334,235.19072 18.845106,161.00359 58.747337,106.86998 34.456481,142.98015 39.33325,193.38905 67.674549,225.7908 c 44.525001,52.24788 117.671201,70.39511 183.926381,64.91067 58.55438,-5.32815 121.65022,-30.96864 151.10749,-84.81471 16.89516,-30.56414 14.82183,-69.64888 -4.07862,-98.86715 51.27693,69.14598 51.17294,170.35845 0.98128,240.0638 -39.49749,57.36363 -108.89783,91.79858 -178.43997,88.9399 z"
         id="path3036"
         inkscape:connector-curvature="0" />
      <path
         style="fill:#939393"
         d="M 221.34026,436.02343 C 138.89573,434.0063 61.08426,378.24306 33.178442,300.55858 10.205747,240.24573 17.368194,169.19328 53.067355,115.26809 30.152776,153.48896 39.049306,204.2827 69.276768,235.7725 c 47.334052,50.90741 121.724012,67.67608 188.908252,60.50838 58.29264,-6.65084 120.57654,-33.61794 148.59109,-88.12963 14.83757,-28.88827 13.51682,-64.78442 -2.61666,-92.88316 47.33037,70.684 43.14496,170.33064 -8.72563,237.5208 -39.96731,53.96856 -107.00091,85.89736 -174.09356,83.23454 z"
         id="path3034"
         inkscape:connector-curvature="0" />
      <path
         style="fill:#8b8b8b"
         d="M 221.34026,436.02343 C 136.5403,434.06528 57.009688,374.93851 30.921704,294.19059 11.882987,238.69939 17.672233,174.96573 47.617277,124.3825 c -20.284641,39.21186 -8.977014,88.78595 21.728765,119.25817 51.012008,52.09662 129.818528,67.68649 200.023848,57.30188 56.5687,-8.80241 116.13424,-37.20974 141.56733,-91.36413 12.52596,-26.73815 11.66361,-58.80209 -1.3277,-85.19592 44.4662,73.96964 34.02232,175.05607 -23.11843,239.39365 -40.52489,47.46145 -102.79252,74.60562 -165.15083,72.24728 z"
         id="path3032"
         inkscape:connector-curvature="0" />
      <path
         style="fill:#838383"
         d="M 220.83283,435.85393 C 135.97219,433.87175 56.49471,374.30637 30.716552,293.43821 13.393606,241.357 16.97619,181.87744 42.978828,133.27471 23.241,176.36848 41.11875,228.28581 76.278766,257.68934 c 56.021334,48.55011 136.437074,61.25609 207.601624,46.67875 55.42132,-11.57313 113.43391,-43.64911 133.27772,-99.75495 7.97237,-23.06311 6.7683,-48.97753 -2.91011,-71.33843 42.27977,78.34259 24.3757,182.87512 -40.30731,243.76889 -40.23043,39.51675 -96.79467,61.08326 -153.10786,58.81033 z"
         id="path3030"
         inkscape:connector-curvature="0" />
      <path
         style="fill:#7b7b7b"
         d="M 221.00197,435.85405 C 137.17391,433.91817 58.554549,375.96547 31.786958,296.53693 14.243359,246.40353 16.143768,189.1223 39.16797,141.05528 c -17.218983,42.16782 0.256046,91.25211 33.477296,120.25623 58.226334,51.85523 143.367424,64.56605 217.748544,47.60985 54.32803,-12.6725 110.20117,-45.16001 129.27253,-100.42283 7.33844,-21.7796 6.64718,-46.02579 -1.60751,-67.44325 38.47626,79.31082 17.12631,181.63062 -48.49901,240.12611 -39.8434,36.83299 -94.35255,56.77717 -148.55785,54.67266 z"
         id="path3028"
         inkscape:connector-curvature="0" />
      <path
         style="fill:#737373"
         d="M 221.17111,435.85417 C 137.93473,433.89477 59.65434,376.8359 32.422039,298.16099 15.175055,250.48798 15.824038,196.29672 35.445085,149.43999 c -15.144932,43.27399 4.524795,91.34165 38.420484,119.79699 62.445361,52.82906 152.602991,63.69908 229.713801,42.1725 52.62783,-14.96688 106.18529,-50.4852 120.46018,-106.28541 5.26667,-16.96496 1.87876,-43.06264 -1.59432,-54.17393 33.60426,80.80744 8.02968,180.99164 -59.75267,236.25075 -39.09584,32.98785 -90.4375,50.52047 -141.52145,48.65328 z"
         id="path3026"
         inkscape:connector-curvature="0" />
      <path
         style="fill:#6b6b6b"
         d="M 221.17111,435.85417 C 139.4693,433.86524 62.390324,378.96074 33.973544,302.31717 16.319339,256.75069 15.202188,203.89461 32.175029,158.45853 c -14.089406,47.04929 11.969143,96.6757 50.073338,124.05615 67.741433,49.32409 160.618833,56.87295 238.527403,29.13096 51.07279,-18.23709 101.45998,-58.80593 107.55377,-116.08475 2.19846,-10.4852 -1.68831,-30.70638 -2.64345,-35.81924 29.6219,81.47287 0.49282,179.40362 -68.46643,231.85708 -38.3329,30.17223 -87.30248,46.03842 -136.04855,44.25544 z"
         id="path3024"
         inkscape:connector-curvature="0" />
      <path
         style="fill:#636363"
         d="M 221.34026,435.85429 C 136.6263,433.90155 57.12214,374.89562 31.090847,294.19059 17.345765,253.57884 16.193256,208.53154 29.117923,167.56286 c -11.270939,47.54365 16.282798,95.94475 54.963965,122.48011 69.556372,48.64445 163.897802,54.94952 242.283972,25.27654 49.3874,-18.84384 97.34967,-58.98696 103.60072,-114.42359 3.31508,-9.43682 -5.25338,-48.4918 1.60007,-21.02235 20.5796,81.83416 -15.52647,173.47971 -85.73888,220.00353 -36.37256,24.72975 -80.51909,37.49429 -124.48751,35.97719 z M 29.20732,167.11738 c 0.07545,-0.72924 0.244125,0.45047 0,0 z m 398.66971,0 c 0.0755,-0.72924 0.24431,0.45053 0,0 z"
         id="path3022"
         inkscape:connector-curvature="0" />
      <path
         style="fill:#5b5b5b"
         d="M 221.5094,435.85442 C 139.26414,433.81614 61.557895,378.35568 33.536988,300.90203 18.59574,261.30109 15.738422,216.98588 26.762333,176.03241 c -9.504054,49.03217 21.002539,96.75314 61.037845,122.6101 74.531482,48.58708 174.599882,52.45438 254.720972,15.3499 47.29138,-21.80401 90.57048,-66.26674 89.5268,-121.32754 -0.34831,-9.95622 -2.82265,-23.87588 0.91291,-6.12893 18.32904,84.23163 -22.97728,176.85383 -97.57777,219.93086 -34.13364,20.41686 -74.13533,30.65713 -113.87369,29.38762 z"
         id="path3020"
         inkscape:connector-curvature="0" />
      <path
         style="fill:#535353"
         d="M 221.00197,435.68491 C 137.28177,433.72872 58.677746,375.92871 31.956101,296.53693 19.47972,260.84353 16.761612,221.65356 24.741325,184.6674 c -7.452629,50.20045 25.483824,96.95408 66.725851,122.15144 74.153054,45.67265 171.449984,48.99253 250.254704,13.20033 47.49027,-21.48687 91.72593,-65.55861 91.62633,-120.86332 -0.51328,-12.47206 -1.19147,-18.5134 1.3986,-2.25129 13.32731,82.44564 -28.96334,170.15344 -101.84286,210.93936 -33.69074,19.69513 -72.95305,29.18384 -111.90198,27.84099 z"
         id="path3018"
         inkscape:connector-curvature="0" />
      <path
         style="fill:#4b4b4b"
         d="M 221.34026,435.68515 C 137.86265,433.70008 59.306039,376.35248 32.335367,297.2682 20.725127,264.55187 17.136496,228.77225 23.02496,194.52582 c -4.925315,52.7904 33.064471,99.39455 77.36727,123.24443 78.32344,42.48409 178.76122,42.61113 256.96407,-0.31012 44.05937,-24.06835 81.76655,-70.21621 76.84515,-122.93431 15.31892,85.68538 -30.76736,177.61245 -108.29914,217.09593 -31.98385,17.01662 -68.3849,25.22829 -104.56205,24.0634 z M 23.118177,192.82709 c 0.07545,-0.72924 0.244125,0.45047 0,0 z m 410.848003,0 c 0.0753,-0.72922 0.24417,0.45047 0,0 z"
         id="path3016"
         inkscape:connector-curvature="0" />
    </g>
  </g>
</svg>
