<?xml version="1.0" encoding="UTF-8" standalone="no"?>
<svg
   xmlns:dc="http://purl.org/dc/elements/1.1/"
   xmlns:cc="http://creativecommons.org/ns#"
   xmlns:rdf="http://www.w3.org/1999/02/22-rdf-syntax-ns#"
   xmlns:svg="http://www.w3.org/2000/svg"
   xmlns="http://www.w3.org/2000/svg"
   xmlns:sodipodi="http://sodipodi.sourceforge.net/DTD/sodipodi-0.dtd"
   xmlns:inkscape="http://www.inkscape.org/namespaces/inkscape"
   version="1.0"
   width="98.000000pt"
   height="100.000000pt"
   viewBox="0 0 98.000000 100.000000"
   preserveAspectRatio="xMidYMid meet"
   id="svg2"
   inkscape:version="0.91 r13725"
   sodipodi:docname="empty2.svg">
  <metadata
     id="metadata12">
    <rdf:RDF>
      <cc:Work
         rdf:about="">
        <dc:format>image/svg+xml</dc:format>
        <dc:type
           rdf:resource="http://purl.org/dc/dcmitype/StillImage" />
        <dc:title></dc:title>
      </cc:Work>
    </rdf:RDF>
  </metadata>
  <defs
     id="defs10" />
  <sodipodi:namedview
     pagecolor="#ffffff"
     bordercolor="#666666"
     borderopacity="1"
     objecttolerance="10"
     gridtolerance="10"
     guidetolerance="10"
     inkscape:pageopacity="0"
     inkscape:pageshadow="2"
     inkscape:window-width="1366"
     inkscape:window-height="665"
     id="namedview8"
     showgrid="false"
     inkscape:zoom="7.6995"
     inkscape:cx="68.782957"
     inkscape:cy="98.865998"
     inkscape:window-x="0"
     inkscape:window-y="30"
     inkscape:window-maximized="1"
     inkscape:current-layer="svg2" />
  <g
     transform="translate(0.000000,100.000000) scale(0.100000,-0.100000)"
     fill="#000000"
     stroke="none"
     id="g4">
    <path
       d="M874 781 c72 -138 -30 -302 -222 -361 -75 -23 -204 -28 -289 -11 -116 23 -244 119 -273 205 -12 37 -10 114 4 151 6 16 4 15 -13 -5 -11 -14 -30 -50 -42 -80 -97 -251 4 -521 237 -637 73 -35 84 -38 185 -41 124 -5 209 15 292 68 226 143 293 462 146 692 -35 53 -48 64 -25 19z"
       id="path6" />
  </g>
  <ellipse
     style="fill:#b2f3ff;fill-opacity:1;stroke:#ffffff;stroke-width:1.2395153;stroke-opacity:1"
     id="path4140"
     ry="20.0413"
     rx="35.003307"
     cy="31.943632"
     cx="48.730438" />
</svg>
