<?xml version="1.0" encoding="utf-8"?>
<!-- Svg Vector Icons : http://www.onlinewebfonts.com/icon -->
<!DOCTYPE svg PUBLIC "-//W3C//DTD SVG 1.1//EN" "http://www.w3.org/Graphics/SVG/1.1/DTD/svg11.dtd">
<svg version="1.1" xmlns="http://www.w3.org/2000/svg" xmlns:xlink="http://www.w3.org/1999/xlink" x="0px" y="0px" viewBox="0 0 1000 1000" enable-background="new 0 0 1000 1000" xml:space="preserve">
<metadata> Svg Vector Icons : http://www.onlinewebfonts.com/icon </metadata>
<g><path d="M325.7,136.3c25.3,0,50.4,3.6,74.7,10.6c-30.9,18.4-56.9,43.4-75.8,72.8c-102.6,0.6-186,84.4-186,187.3c0,103.3,83.9,187.3,187.1,187.3c103.1,0,187-84,187-187.3c0-32.1-8.3-63.7-24-91.6c21.4-22.7,46.9-35.2,72.2-35.2c1.1,0,2.3,0,3.4,0.1c20.7,38.9,31.6,82.6,31.6,126.7c0,64.2-22.9,126.5-64.6,175.4c-41.2,48.3-98.1,80.8-160.2,91.4l-4.7,0.8l0.5,4.7c0,0.5,0.1,1,0.2,1.5c0.1,0.8,0.2,1.4,0.2,2V764v5h5.1h128.3c22.9,0,41.6,18.7,41.6,41.7c0,23-18.7,41.7-41.6,41.7H372.4h-5.1v5.1v90.9c0,23-18.7,41.7-41.6,41.7c-22.9,0-41.6-18.7-41.6-41.7v-90.9v-5.1h-5.1H150.7c-22.9,0-41.6-18.7-41.6-41.7c0-23,18.7-41.7,41.6-41.7h128.3h5.1v-5v-81.4c0-0.5,0.1-1.1,0.2-1.8c0.1-0.6,0.2-1.1,0.2-1.7l0.4-4.6l-4.6-0.8c-62.1-10.6-119-43-160.2-91.4c-41.7-48.9-64.6-111.2-64.6-175.4C55.5,257.7,176.7,136.3,325.7,136.3"/><path d="M917.2,10c15.1,0,27.3,12.2,27.3,27.1v193.3c0,15-12.3,27.1-27.3,27.1c-15.1,0-27.3-12.2-27.3-27.1v-96.4v-12.4l-8.7,8.9L759,256.1l-3.1,3.2l2.9,3.5c38.7,47.3,60,106.9,60,167.7c0,146.9-120.2,266.4-267.9,266.4c-8.6,0-17.3-0.4-25.9-1.2c26-20.9,48.3-50.9,62.4-84.3c86.5-17.2,149-92.8,149-180.8c0-101.7-83.2-184.5-185.5-184.5s-185.5,82.8-185.5,184.5c0,33.7,9.2,66.5,26.8,95.3c-16.8,13.9-38,21.1-61.7,21.1c-7.1,0-14.3-0.7-21.5-2c-17.3-35.9-26-74.4-26-114.4c0-146.9,120.2-266.4,267.9-266.4c49.3,0,97.5,13.5,139.4,39l3.4,2.1l2.8-2.9L822.7,72.9l8.4-8.6h-12h-85c-15.1,0-27.3-12.2-27.3-27.1c0-15,12.3-27.1,27.3-27.1L917.2,10"/></g>
</svg>