<?xml version="1.0" encoding="UTF-8" standalone="no"?>
<svg
   xmlns:dc="http://purl.org/dc/elements/1.1/"
   xmlns:cc="http://creativecommons.org/ns#"
   xmlns:rdf="http://www.w3.org/1999/02/22-rdf-syntax-ns#"
   xmlns:svg="http://www.w3.org/2000/svg"
   xmlns="http://www.w3.org/2000/svg"
   xmlns:xlink="http://www.w3.org/1999/xlink"
   xmlns:sodipodi="http://sodipodi.sourceforge.net/DTD/sodipodi-0.dtd"
   xmlns:inkscape="http://www.inkscape.org/namespaces/inkscape"
   viewBox="0 0 45 45"
   style="enable-background:new 0 0 45 45;"
   xml:space="preserve"
   version="1.1"
   id="svg2"
   inkscape:version="0.91 r13725"
   sodipodi:docname="cross_b.svg"><sodipodi:namedview
     pagecolor="#ffffff"
     bordercolor="#666666"
     borderopacity="1"
     objecttolerance="10"
     gridtolerance="10"
     guidetolerance="10"
     inkscape:pageopacity="0"
     inkscape:pageshadow="2"
     inkscape:window-width="1366"
     inkscape:window-height="664"
     id="namedview12"
     showgrid="false"
     inkscape:zoom="11.021528"
     inkscape:cx="22.5"
     inkscape:cy="22.5"
     inkscape:window-x="0"
     inkscape:window-y="31"
     inkscape:window-maximized="1"
     inkscape:current-layer="svg2" /><metadata
     id="metadata8"><rdf:RDF><cc:Work
         rdf:about=""><dc:format>image/svg+xml</dc:format><dc:type
           rdf:resource="http://purl.org/dc/dcmitype/StillImage" /></cc:Work></rdf:RDF></metadata><defs
     id="defs6"><linearGradient
       inkscape:collect="always"
       id="linearGradient4224"><stop
         style="stop-color:#010000;stop-opacity:0.95918369"
         offset="0"
         id="stop4226" /><stop
         style="stop-color:#000000;stop-opacity:0;"
         offset="1"
         id="stop4228" /></linearGradient><clipPath
       id="clipPath16"
       clipPathUnits="userSpaceOnUse"><path
         id="path18"
         d="M 0,36 36,36 36,0 0,0 0,36 Z" /></clipPath><linearGradient
       inkscape:collect="always"
       xlink:href="#linearGradient4224"
       id="linearGradient4230"
       x1="10.524857"
       y1="15.695136"
       x2="50.319595"
       y2="37.198505"
       gradientUnits="userSpaceOnUse" /></defs><ellipse
     style="opacity:1;fill:#a10000;fill-opacity:0.95918369;stroke:url(#linearGradient4230);stroke-width:1.33737123;stroke-opacity:1"
     id="path4206"
     cx="22.5"
     cy="22.5"
     r="21.831314" /><g
     transform="matrix(1.25,0,0,-1.25,0,45)"
     id="g10"><g
       id="g12"><g
         clip-path="url(#clipPath16)"
         id="g14"><g
           transform="translate(21.5332,17.9976)"
           id="g20"><path
             id="path22"
             style="fill:#ff0000;fill-opacity:1;fill-rule:nonzero;stroke:none"
             d="m 0,0 12.234,12.234 c 0.977,0.976 0.977,2.559 0,3.535 -0.976,0.977 -2.558,0.977 -3.535,0 L -3.535,3.535 -15.77,15.769 c -0.975,0.977 -2.559,0.977 -3.535,0 -0.976,-0.976 -0.976,-2.559 0,-3.535 L -7.07,0 -19.332,-12.262 c -0.977,-0.977 -0.977,-2.559 0,-3.535 0.488,-0.489 1.128,-0.733 1.768,-0.733 0.639,0 1.279,0.244 1.767,0.733 L -3.535,-3.535 8.699,-15.769 c 0.489,-0.488 1.128,-0.733 1.768,-0.733 0.639,0 1.279,0.245 1.767,0.733 0.977,0.976 0.977,2.558 0,3.535 L 0,0 Z" /></g></g></g></g></svg>