<?xml version="1.0" encoding="UTF-8" standalone="no"?>
<!-- Generator: Adobe Illustrator 19.1.0, SVG Export Plug-In . SVG Version: 6.00 Build 0)  -->

<svg
   x="0px"
   y="0px"
   viewBox="0 0 31.676328 31.676328"
   xml:space="preserve"
   width="40"
   height="40"
   inkscape:version="0.91 r13725"
   sodipodi:docname="right-arrow.svg"><metadata
     id="metadata41"><rdf:RDF><cc:Work
         rdf:about=""><dc:format>image/svg+xml</dc:format><dc:type
           rdf:resource="http://purl.org/dc/dcmitype/StillImage" /><dc:title></dc:title></cc:Work></rdf:RDF></metadata><defs
     id="defs39" /><sodipodi:namedview
     pagecolor="#ffffff"
     bordercolor="#666666"
     borderopacity="1"
 /><g
     id="g3"
     style="fill:#ffffff;fill-opacity:1;stroke:#ffffff;stroke-opacity:1"
     transform="matrix(0.11428564,0,0,0.078125,-7.5684202,-5.636957e-6)"><path
       d="m 64.147,331.322 c 0.078,4.985 2.163,9.911 5.688,13.438 l 55,55 c 3.599,3.601 8.659,5.697 13.75,5.697 5.091,0 10.151,-2.096 13.75,-5.697 L 335.616,216.478 c 3.601,-3.599 5.697,-8.659 5.697,-13.75 0,-5.091 -2.096,-10.151 -5.697,-13.75 L 152.335,5.697 C 148.736,2.096 143.676,0 138.585,0 c -5.091,0 -10.151,2.096 -13.75,5.697 l -55,55 c -3.591,3.598 -5.681,8.651 -5.681,13.734 0,5.083 2.09,10.136 5.681,13.734 L 184.397,202.728 69.835,317.291 c -3.664,3.667 -5.765,8.848 -5.688,14.031 l 0,0 z"
       id="path5"
       style="fill:#ffffff;fill-opacity:1;stroke:#ffffff;stroke-opacity:1"
       inkscape:connector-curvature="0" /></g><g
     id="g7"
     transform="translate(0,-373.78066)" /><g
     id="g9"
     transform="translate(0,-373.78066)" /><g
     id="g11"
     transform="translate(0,-373.78066)" /><g
     id="g13"
     transform="translate(0,-373.78066)" /><g
     id="g15"
     transform="translate(0,-373.78066)" /><g
     id="g17"
     transform="translate(0,-373.78066)" /><g
     id="g19"
     transform="translate(0,-373.78066)" /><g
     id="g21"
     transform="translate(0,-373.78066)" /><g
     id="g23"
     transform="translate(0,-373.78066)" /><g
     id="g25"
     transform="translate(0,-373.78066)" /><g
     id="g27"
     transform="translate(0,-373.78066)" /><g
     id="g29"
     transform="translate(0,-373.78066)" /><g
     id="g31"
     transform="translate(0,-373.78066)" /><g
     id="g33"
     transform="translate(0,-373.78066)" /><g
     id="g35"
     transform="translate(0,-373.78066)" /></svg>